<svg xmlns="http://www.w3.org/2000/svg" width="256" height="256" viewBox="0 0 100 100"><rect width="100" height="100" rx="50" fill="#4a4a4a"></rect><path fill="#fcaf30" d="M12.79 57.20Q10.96 57.20 9.54 56.36Q8.12 55.53 7.35 53.99Q6.58 52.45 6.58 50.42L6.58 50.42Q6.58 48.40 7.38 46.83Q8.18 45.27 9.61 44.40Q11.04 43.54 12.90 43.54L12.90 43.54Q13.93 43.54 14.94 43.82Q15.95 44.11 16.71 44.65L16.71 44.65Q17.20 44.97 17.40 45.28Q17.60 45.59 17.60 45.97L17.60 45.97Q17.60 46.35 17.40 46.59Q17.20 46.83 16.87 46.83L16.87 46.83Q16.68 46.83 16.47 46.73Q16.25 46.62 16.10 46.51Q15.95 46.40 15.90 46.37L15.90 46.37Q15.20 45.92 14.56 45.65Q13.93 45.38 13.01 45.38L13.01 45.38Q11.04 45.38 9.95 46.71Q8.85 48.05 8.85 50.42L8.85 50.42Q8.85 52.80 9.95 54.10Q11.04 55.39 13.01 55.39L13.01 55.39Q13.93 55.39 14.59 55.12Q15.25 54.85 15.93 54.39L15.93 54.39Q16.22 54.20 16.49 54.07Q16.76 53.93 16.95 53.93L16.95 53.93Q17.25 53.93 17.45 54.18Q17.65 54.42 17.65 54.80L17.65 54.80Q17.65 55.15 17.47 55.43Q17.28 55.72 16.76 56.07L16.76 56.07Q16.01 56.58 14.94 56.89Q13.87 57.20 12.79 57.20L12.79 57.20ZM25.75 57.20Q23.89 57.20 22.47 56.36Q21.06 55.53 20.29 53.97Q19.52 52.42 19.52 50.37L19.52 50.37Q19.52 48.32 20.29 46.77Q21.06 45.21 22.47 44.38Q23.89 43.54 25.75 43.54L25.75 43.54Q27.62 43.54 29.05 44.38Q30.48 45.21 31.25 46.77Q32.02 48.32 32.02 50.37L32.02 50.37Q32.02 52.42 31.25 53.97Q30.48 55.53 29.05 56.36Q27.62 57.20 25.75 57.20L25.75 57.20ZM25.75 55.39Q27.70 55.39 28.74 54.11Q29.78 52.83 29.78 50.37L29.78 50.37Q29.78 47.97 28.72 46.66Q27.67 45.35 25.75 45.35L25.75 45.35Q23.84 45.35 22.78 46.66Q21.73 47.97 21.73 50.37L21.73 50.37Q21.73 52.80 22.77 54.10Q23.81 55.39 25.75 55.39L25.75 55.39ZM45.95 43.59Q46.46 43.59 46.76 43.89Q47.06 44.19 47.06 44.67L47.06 44.67L47.06 56.12Q47.06 59.06 45.55 60.56Q44.03 62.06 41.06 62.06L41.06 62.06Q38.17 62.06 36.26 60.93L36.26 60.93Q35.29 60.39 35.29 59.69L35.29 59.69Q35.29 59.31 35.49 59.06Q35.69 58.82 36.01 58.82L36.01 58.82Q36.28 58.82 36.99 59.20L36.99 59.20Q37.93 59.69 38.85 59.98Q39.77 60.28 41.04 60.28L41.04 60.28Q42.95 60.28 43.93 59.27Q44.90 58.25 44.90 56.31L44.90 56.31L44.90 53.99Q44.33 55.26 43.16 55.93Q41.98 56.61 40.39 56.61L40.39 56.61Q38.66 56.61 37.32 55.80Q35.99 54.99 35.24 53.50Q34.50 52.02 34.50 50.07L34.50 50.07Q34.50 48.13 35.24 46.64Q35.99 45.16 37.32 44.35Q38.66 43.54 40.39 43.54L40.39 43.54Q41.95 43.54 43.12 44.21Q44.28 44.89 44.87 46.13L44.87 46.13L44.87 44.67Q44.87 44.19 45.15 43.89Q45.44 43.59 45.95 43.59L45.95 43.59ZM40.82 54.80Q42.71 54.80 43.79 53.54Q44.87 52.29 44.87 50.07L44.87 50.07Q44.87 47.89 43.80 46.63Q42.74 45.38 40.82 45.38L40.82 45.38Q38.90 45.38 37.81 46.63Q36.72 47.89 36.72 50.07L36.72 50.07Q36.72 52.29 37.81 53.54Q38.90 54.80 40.82 54.80L40.82 54.80ZM57.72 43.54Q62.45 43.54 62.45 48.75L62.45 48.75L62.45 56.07Q62.45 56.58 62.16 56.86Q61.88 57.15 61.37 57.15L61.37 57.15Q60.85 57.15 60.56 56.86Q60.26 56.58 60.26 56.07L60.26 56.07L60.26 48.89Q60.26 47.05 59.54 46.21Q58.83 45.38 57.26 45.38L57.26 45.38Q55.45 45.38 54.37 46.48Q53.29 47.59 53.29 49.48L53.29 49.48L53.29 56.07Q53.29 56.58 53.01 56.86Q52.73 57.15 52.21 57.15L52.21 57.15Q51.70 57.15 51.40 56.86Q51.11 56.58 51.11 56.07L51.11 56.07L51.11 44.67Q51.11 44.19 51.40 43.89Q51.70 43.59 52.21 43.59L52.21 43.59Q52.70 43.59 52.98 43.89Q53.27 44.19 53.27 44.65L53.27 44.65L53.27 46.02Q53.92 44.81 55.08 44.17Q56.24 43.54 57.72 43.54L57.72 43.54ZM67.55 57.15Q67.06 57.15 66.75 56.86Q66.44 56.58 66.44 56.07L66.44 56.07L66.44 44.67Q66.44 44.16 66.75 43.88Q67.06 43.59 67.55 43.59L67.55 43.59Q68.04 43.59 68.33 43.88Q68.63 44.16 68.63 44.67L68.63 44.67L68.63 56.07Q68.63 56.61 68.33 56.88Q68.04 57.15 67.55 57.15L67.55 57.15ZM67.55 40.76Q66.90 40.76 66.50 40.38Q66.09 40.00 66.09 39.38L66.09 39.38Q66.09 38.79 66.50 38.41Q66.90 38.03 67.55 38.03L67.55 38.03Q68.20 38.03 68.60 38.41Q69.01 38.79 69.01 39.38L69.01 39.38Q69.01 40.00 68.60 40.38Q68.20 40.76 67.55 40.76L67.55 40.76ZM78.51 39.71Q77.08 39.81 76.35 40.61Q75.62 41.41 75.62 43.00L75.62 43.00L75.62 43.86L78.62 43.86Q79.08 43.86 79.32 44.11Q79.56 44.35 79.56 44.75L79.56 44.75Q79.56 45.16 79.32 45.38Q79.08 45.59 78.62 45.59L78.62 45.59L75.62 45.59L75.62 56.07Q75.62 56.58 75.31 56.86Q75.00 57.15 74.54 57.15L74.54 57.15Q74.06 57.15 73.75 56.86Q73.44 56.58 73.44 56.07L73.44 56.07L73.44 45.59L71.63 45.59Q71.17 45.59 70.91 45.36Q70.66 45.13 70.66 44.75L70.66 44.75Q70.66 44.35 70.91 44.11Q71.17 43.86 71.63 43.86L71.63 43.86L73.44 43.86L73.44 43.38Q73.44 40.95 74.65 39.56Q75.87 38.17 78.13 38.00L78.13 38.00L78.84 37.95Q79.54 37.90 79.85 38.09Q80.16 38.27 80.16 38.76L80.16 38.76Q80.16 39.54 79.21 39.65L79.21 39.65L78.51 39.71ZM91.42 44.27Q91.72 43.62 92.36 43.62L92.36 43.62Q92.77 43.62 93.09 43.89Q93.42 44.16 93.42 44.57L93.42 44.57Q93.42 44.81 93.31 45.00L93.31 45.00L85.72 61.36Q85.59 61.66 85.33 61.82Q85.07 61.98 84.80 61.98L84.80 61.98Q84.40 61.98 84.09 61.72Q83.78 61.47 83.78 61.06L83.78 61.06Q83.78 60.85 83.88 60.63L83.88 60.63L85.77 56.55L80.43 45.00Q80.32 44.81 80.32 44.59L80.32 44.59Q80.32 44.19 80.69 43.89Q81.05 43.59 81.48 43.59L81.48 43.59Q81.75 43.59 82.01 43.76Q82.27 43.92 82.40 44.21L82.40 44.21L86.91 54.34L91.42 44.27Z"></path></svg>